<svg xmlns="http://www.w3.org/2000/svg" viewBox="0 0 24 24"><path d="M3.83,7.9,2.16,7.79c-.67,0-1,.38-.89.86l3.5,8.8Zm18.84,9.78L21.58,8.73c-.09-.66-.25-.89-.66-.92L14.56,7.2a1.09,1.09,0,0,1-1-1.12,1.2,1.2,0,0,0-1-1.18L5.71,4.06a1.05,1.05,0,0,0-1.25,1.1l1.47,15A1,1,0,0,0,7.15,21L21.9,18.46C22.32,18.38,22.69,18.11,22.67,17.68Zm-4.46-8a.68.68,0,0,1,.88.36.6.6,0,1,1-1,.58.69.69,0,0,1,.12-.94Zm-1.78.11a.68.68,0,0,1,.88.36.69.69,0,0,1-.12.94.68.68,0,0,1-.88-.36.69.69,0,0,1,.12-.94Zm-2.57-1a.76.76,0,0,1,1,.41.76.76,0,0,1-.14,1.05.77.77,0,0,1-1-.4.77.77,0,0,1,.14-1.06ZM9.92,8A.85.85,0,0,1,11,8.44a.84.84,0,0,1-.16,1.17.85.85,0,0,1-1.09-.45A.84.84,0,0,1,9.92,8Zm1.14,9.9a1.89,1.89,0,0,1-1.56-.17c-.5-.35-.54-1.41-.56-1.66s0-2,0-2.87a.43.43,0,0,0-.08-.29c-.17-.18-.35-.05-.66-.29A.63.63,0,0,1,8,12.1a.59.59,0,0,1,.18-.45c.26-.23.56-.05.72-.16s0-.42.08-.9A.83.83,0,0,1,9.22,10a.81.81,0,0,1,.6-.15,4.09,4.09,0,0,1,1.38.37,1.06,1.06,0,0,1,.37.29,1.23,1.23,0,0,1,.26.66,2.08,2.08,0,0,0,.09.77c.07.14.37.18.44.18s.57.11.57.58a.42.42,0,0,1-.27.42H12.2c-.26,0-.27.15-.27.22s.09,2.8.12,3.1a1.43,1.43,0,0,0,.19.57,1.79,1.79,0,0,0,.79.57S11.63,17.78,11.06,17.89Zm8.17-1.42-2.43.44a17.47,17.47,0,0,1-2.17.28,1.14,1.14,0,0,1-.93-.49,3,3,0,0,1-.31-1.15c-.07-.53-.2-2.87-.23-3.79s.2-1.31.63-1.34a3.25,3.25,0,0,1,1.44.33c.38.24.4.9.43,1.06s.43,4.44.49,4.58.23,0,.22-.06c-.05-.81-.32-4.27-.34-4.57a.65.65,0,0,1,.1-.39.52.52,0,0,1,.43-.18,4,4,0,0,1,.77.15.81.81,0,0,1,.52.66c0,.11.42,4,.47,4.05a.11.11,0,0,0,.16,0,.05.05,0,0,0,0,0c0-.11-.38-4-.41-4.4,0-.17,0-.56.37-.52a3.1,3.1,0,0,1,.53.1.7.7,0,0,1,.46.56s.13.73.24,1.71c.1.81.24,1.65.23,2.07,0,.85-.54.93-.7,1Z"/></svg>