<svg class="projects-mark-monotone-dark" data-name="Teamwork Projects" xmlns="http://www.w3.org/2000/svg" viewBox="0 0 175.904 139.057">
  <title>projects-mark-monotone-dark</title>
  <path class="shape-back" d="M21.331,31.566l-13.72-.95c-5.49,0-8.67,3.16-7.29,7.05l28.71,72.25Z" transform="translate(0 0)" fill="#000"/>
  <path class="shape-front" d="M175.891,111.776l-8.93-73.4c-.74-5.43-2-7.36-5.41-7.61l-52.19-4.93c-4.53-.33-8-4.06-8.14-9.2a9.78,9.78,0,0,0-8.56-9.68L36.751.066c-6.12-.64-10.79,3.42-10.32,9L38.571,132.5c.35,4.15,4.83,7,10,6.5l121-20.77C173.041,117.586,176.121,115.336,175.891,111.776Zm-36.543-65.9c2.274-1.313,5.5.01,7.2,2.955s1.235,6.4-1.039,7.71-5.5-.01-7.2-2.955-1.235-6.386,1.039-7.7Zm-14.6.955c2.274-1.313,5.5.01,7.2,2.955s1.235,6.4-1.039,7.71-5.5-.01-7.2-2.955-1.237-6.4,1.037-7.709Zm-21.1-8.142c2.557-1.477,6.181.012,8.094,3.326s1.39,7.2-1.167,8.673-6.181-.012-8.094-3.326-1.392-7.2,1.166-8.671Zm-32.407-6.43c2.844-1.642,6.874.014,9,3.7s1.546,8-1.3,9.645-6.874-.014-9-3.7S68.4,33.9,71.241,32.259ZM80.6,113.5c-4.625.838-8.637,1.5-12.737-1.362s-4.461-11.58-4.639-13.623c-.109-1.083-.157-16.749,0-23.561a3.474,3.474,0,0,0-.64-2.364c-1.362-1.471-2.888-.4-5.449-2.357a5.293,5.293,0,0,1-2.043-4.216,4.557,4.557,0,0,1,1.518-3.671c2.118-1.928,4.591-.422,5.858-1.362.824-.579.375-3.406.681-7.39a6.859,6.859,0,0,1,2.425-5,6.618,6.618,0,0,1,4.9-1.219A34.113,34.113,0,0,1,81.788,50.44a7.826,7.826,0,0,1,3.022,2.384,10.3,10.3,0,0,1,2.173,5.4c.164,1.587-.272,4.611.681,6.314.64,1.138,3.045,1.471,3.644,1.512s4.686.845,4.686,4.707c0,1.791-1.144,3.3-2.248,3.44a37.1,37.1,0,0,1-3.736-.047c-2.186-.048-2.227,1.247-2.227,1.805-.014.443.742,22.934,1.015,25.427a11.15,11.15,0,0,0,1.56,4.673,13.986,13.986,0,0,0,6.423,4.666S85.354,112.67,80.6,113.5Zm67.107-11.62c-1.376.3-19.992,3.576-19.992,3.576-2.656.259-13.664,2.65-17.805,2.3s-5.94-1.785-7.608-4-2.336-7.384-2.582-9.427c-.525-4.366-1.567-23.547-1.887-31.088-.354-8.208,1.669-10.728,5.2-11.028,2.5-.429,9.461,1.219,11.832,2.725,3.113,1.975,3.317,7.39,3.487,8.657.225,1.7,3.562,36.448,4.087,37.633.45.994,1.86.177,1.812-.5-.45-6.614-2.65-35.038-2.834-37.524a5.232,5.232,0,0,1,.842-3.2,4.133,4.133,0,0,1,3.515-1.424,30.521,30.521,0,0,1,6.348,1.192,6.573,6.573,0,0,1,4.2,5.449c.15.9,3.528,32.532,3.93,33.179a.926.926,0,0,0,1.553-.5c.075-.892-3.126-32.838-3.406-36.1-.116-1.362-.17-4.55,3.024-4.2a19.5,19.5,0,0,1,4.393.8,5.742,5.742,0,0,1,3.767,4.57s1.029,5.98,2,14.018c.811,6.709,1.921,13.548,1.88,17-.123,6.947-4.5,7.628-5.752,7.9Z" transform="translate(0 0)" fill="#000"/>
</svg>
