<svg xmlns="http://www.w3.org/2000/svg" viewBox="0 0 24 24"><title>calendar</title><path d="M6.84,11.88a1,1,0,1,1,1,1A1,1,0,0,1,6.84,11.88Zm5,1a1,1,0,1,0-1-1A1,1,0,0,0,11.83,12.87Zm4,0a1,1,0,1,0-1-1A1,1,0,0,0,15.85,12.87Zm-8,4a1,1,0,1,0-1-1A1,1,0,0,0,7.83,16.83Zm4,0a1,1,0,1,0-1-1A1,1,0,0,0,11.83,16.83Zm4,0a1,1,0,1,0-1-1A1,1,0,0,0,15.85,16.83Zm4-9.32V18.22A1.78,1.78,0,0,1,18.05,20H5.61a1.78,1.78,0,0,1-1.78-1.78V7.51a1.79,1.79,0,0,1,1-1.58v-.1h.25a1.9,1.9,0,0,1,.53-.09h.22V4.83a1,1,0,0,1,2,0v.91H15.9V4.83a1,1,0,1,1,1.93,0v.91h.22a1.91,1.91,0,0,1,.54.09h.24v.1A1.76,1.76,0,0,1,19.83,7.51Zm-1,1.32h-14v9.39a.78.78,0,0,0,.78.78H18.05a.78.78,0,0,0,.78-.78Z"/></svg>