<svg xmlns="http://www.w3.org/2000/svg" viewBox="0 0 16 16.17"><defs><style>.cls-1{fill:#494e5e;}</style></defs><title>Asset 1</title><g id="Layer_2" data-name="Layer 2"><g id="icons"><rect class="cls-1" x="1.99" y="2.99" width="12.04" height="0.99"/><path d="M13.07,0a1,1,0,0,0-1,1V2H4V1a1,1,0,0,0-2,0V2H1V5H15V2h-1V1a1,1,0,0,0-1-1Z"/><circle cx="4" cy="8.05" r="0.99"/><circle cx="8" cy="8.05" r="0.99"/><circle cx="12.02" cy="8.05" r="0.99"/><circle cx="4" cy="12.01" r="0.99"/><circle cx="8" cy="12.01" r="0.99"/><circle cx="12.02" cy="12.01" r="0.99"/><path d="M14.22,2.91a.78.78,0,0,1,.78.77V14.39a.78.78,0,0,1-.78.78H1.78A.78.78,0,0,1,1,14.39V3.68a.78.78,0,0,1,.78-.77H14.22m0-1H1.78A1.78,1.78,0,0,0,0,3.68V14.39a1.78,1.78,0,0,0,1.78,1.78H14.22A1.78,1.78,0,0,0,16,14.39V3.68a1.78,1.78,0,0,0-1.78-1.77Z"/></g></g></svg>