<svg xmlns="http://www.w3.org/2000/svg" viewBox="0 0 24 24"><title>comment</title><path d="M13.69,15.71a7.33,7.33,0,0,0,3-2.17,4.6,4.6,0,0,0,0-6,7.33,7.33,0,0,0-3-2.17,10.32,10.32,0,0,0-4.11-.8,10.33,10.33,0,0,0-4.12.8,7.33,7.33,0,0,0-3,2.17,4.67,4.67,0,0,0-1.09,3,4.55,4.55,0,0,0,.82,2.6,6.77,6.77,0,0,0,2.27,2.06q-.12.28-.24.51a2.66,2.66,0,0,1-.29.45l-.26.34c-.06.08-.16.19-.3.34l-.27.29-.05.05c0,.05,0,.07,0,.06l0,.06,0,.06,0,.06a.25.25,0,0,0,0,.07s0,0,0,.08a.19.19,0,0,0,0,.07.41.41,0,0,0,.13.25.36.36,0,0,0,.24.09h0a8.16,8.16,0,0,0,1-.19,9.6,9.6,0,0,0,3.24-1.49,11.17,11.17,0,0,0,2.05.19A10.32,10.32,0,0,0,13.69,15.71Zm-6.51-1-.51.36L6,15.56l.4-1-1.12-.65a5.38,5.38,0,0,1-1.74-1.54,3.16,3.16,0,0,1-.61-1.83,3.3,3.3,0,0,1,.91-2.23A6.33,6.33,0,0,1,6.25,6.69a9.12,9.12,0,0,1,3.33-.6,9.1,9.1,0,0,1,3.32.6,6.33,6.33,0,0,1,2.46,1.64,3.31,3.31,0,0,1,.92,2.23,3.31,3.31,0,0,1-.92,2.22,6.33,6.33,0,0,1-2.46,1.64,9.1,9.1,0,0,1-3.32.6,9.82,9.82,0,0,1-1.78-.16Zm14.23,1.4a4.55,4.55,0,0,0-.05-5.28A6.86,6.86,0,0,0,19,8.79a5.91,5.91,0,0,1,.26,1.76,6,6,0,0,1-.77,3A7.89,7.89,0,0,1,16.24,16a10.33,10.33,0,0,1-3.07,1.5A12.27,12.27,0,0,1,9.58,18c-.24,0-.58,0-1-.05A9.73,9.73,0,0,0,14,19.49a11.17,11.17,0,0,0,2.05-.19,9.64,9.64,0,0,0,3.23,1.49c.28.07.62.13,1,.19a.34.34,0,0,0,.25-.08.43.43,0,0,0,.15-.26c0-.05,0-.07,0-.07s0,0,0-.08l0-.07,0-.06a.15.15,0,0,1,0-.06l0-.06-.05-.06a.23.23,0,0,1-.05-.05l-.27-.29c-.14-.15-.24-.26-.3-.34s-.15-.2-.26-.34a2.66,2.66,0,0,1-.29-.45c-.08-.15-.16-.33-.24-.51A6.77,6.77,0,0,0,21.41,16.14Z"/></svg>