<svg id="Layer_1" xmlns="http://www.w3.org/2000/svg" xmlns:xlink="http://www.w3.org/1999/xlink" viewBox="0 0 24 24"><style>.st0{fill:#f5f6f7}.st1{clip-path:url(#SVGID_2_)}.st2{fill:#c8c9ca}</style><title>avatar placeholder - contact</title><circle class="st0" cx="12" cy="12" r="9"/><defs><circle id="SVGID_1_" cx="12" cy="12" r="9"/></defs><clipPath id="SVGID_2_"><use xlink:href="#SVGID_1_" overflow="visible"/></clipPath><g class="st1"><circle class="st2" cx="9" cy="9" r="3"/><path class="st2" d="M15 18v4H3v-4c0-3.3 2.7-6 6-6s6 2.7 6 6zM18.5 9.5h-5c-.3 0-.5-.2-.5-.5s.2-.5.5-.5h5c.3 0 .5.2.5.5s-.2.5-.5.5zM18.5 12.5h-4c-.3 0-.5-.2-.5-.5s.2-.5.5-.5h4c.3 0 .5.2.5.5s-.2.5-.5.5zM18.5 15.5h-2c-.3 0-.5-.2-.5-.5s.2-.5.5-.5h2c.3 0 .5.2.5.5s-.2.5-.5.5z"/></g></svg>