<svg id="Layer_1" data-name="Layer 1" xmlns="http://www.w3.org/2000/svg" xmlns:xlink="http://www.w3.org/1999/xlink" viewBox="0 0 24 24"><defs><clipPath id="clip-path"><path d="M20.756-69.762l-3.709-3.709a7.925,7.925,0,0,0,1.85-5.1,7.984,7.984,0,0,0-7.976-7.976,7.984,7.984,0,0,0-7.976,7.976A7.984,7.984,0,0,0,10.922-70.6a7.912,7.912,0,0,0,5.1-1.846l3.705,3.705a.721.721,0,0,0,.513.212.722.722,0,0,0,.513-.212.722.722,0,0,0,.212-.513.722.722,0,0,0-.212-.513M4.4-78.572A6.533,6.533,0,0,1,10.922-85.1a6.533,6.533,0,0,1,6.526,6.526,6.486,6.486,0,0,1-1.864,4.567,6.48,6.48,0,0,1-4.661,1.959A6.533,6.533,0,0,1,4.4-78.572" style="fill:none;clip-rule:evenodd"/></clipPath></defs><title>ic_m_down_arrow</title><polyline points="4.445 9.282 11.945 16.783 19.446 9.282" style="fill:none;stroke:#000;stroke-linecap:round;stroke-linejoin:round;stroke-width:2px"/></svg>