<svg class="projects-monotone-light" data-name="Teamwork Projects" xmlns="http://www.w3.org/2000/svg" viewBox="0 0 950.422 139.053">
  <title>projects-monotone-light</title>
  <path class="text-teamwork" d="M203.65,87.5V63.82h-7.54V53.37h7.54V40.93h12V53.37h9.23V63.83h-9.23V84.27c0,2.92,1.51,5.09,4.15,5.09a6,6,0,0,0,4.15-1.41l2.54,9.14c-1.79,1.6-5,2.92-10,2.92C208.08,100,203.65,95.67,203.65,87.5Zm26.48-11.43c0-13.19,9.8-23.83,23.55-23.83s22.8,10.17,22.8,25v2.83H242.66c.85,5.56,5.37,10.17,13.09,10.17,3.86,0,9.14-1.6,12.06-4.43l5.37,7.91c-4.52,4.15-11.68,6.31-18.75,6.31C240.58,100,230.13,90.67,230.13,76.07Zm23.55-14c-7.44,0-10.65,5.18-11.12,9.7h22.42c-.37-4.37-3.39-9.74-11.3-9.74Zm58.82,36.8v-4.8c-3.11,3.77-8.48,5.94-14.41,5.94-7.25,0-15.73-4.9-15.73-15.07,0-10.74,8.48-14.7,15.73-14.7,6.12,0,11.4,2,14.41,5.56V70.05c0-4.62-4-7.63-10-7.63a19.13,19.13,0,0,0-13.1,5.37l-4.71-8.38a29.38,29.38,0,0,1,19.88-7.16c10.46,0,20,4.15,20,17.24V98.88Zm0-10.93V82.29c-2-2.64-5.75-4.05-9.61-4.05-4.71,0-8.57,2.54-8.57,6.88s3.86,6.78,8.57,6.78C306.72,91.9,310.5,90.58,312.5,87.94Zm80.23,10.93V70.14c0-4.24-1.88-7.25-6.78-7.25-4.24,0-7.73,2.83-9.42,5.28V98.88H364.5V70.14c0-4.24-1.88-7.25-6.78-7.25-4.15,0-7.63,2.83-9.42,5.28V98.88h-12V53.38h12v5.84a20.39,20.39,0,0,1,14.88-7c6.69,0,11,3.11,12.62,8.2a19.49,19.49,0,0,1,15.64-8.2c8.38,0,13.38,4.43,13.38,13.75V98.85Zm63.87,0-9.61-31-9.61,31H424.57l-13.85-45.5h12.44l8.48,30.62,10-30.62h10.65l10,30.62,8.48-30.62H483.3l-13.85,45.5Zm29.68-22.8c0-12.91,9-23.83,24-23.83S534.4,63.17,534.4,76.07,525.4,100,510.28,100,486.28,88.98,486.28,76.07Zm35.71,0c0-7.07-4.15-13.19-11.68-13.19S498.72,69,498.72,76.07s4.14,13.28,11.59,13.28,11.67-6.12,11.67-13.28Zm21.38,22.8V53.37h12V59.5c3.3-4,8.86-7.25,14.51-7.25V63.93a15.271,15.271,0,0,0-3.3-.28c-4,0-9.23,2.26-11.21,5.18V98.88Zm63.4,0L594.71,81.35l-5.46,5.84V98.87h-12V36.03h12V73.62L606.5,53.37h14.7L603.2,74l18.56,24.87Z" transform="translate(0.011 -0.004)" fill="#fff"/>
  <path class="text-projects" d="M637.05,91.5v24.6h-4.89V53.4h4.89v7.1a19.51,19.51,0,0,1,15.79-8.27c12.13,0,20.3,9.21,20.3,23.78s-8.18,23.87-20.3,23.87A19.4,19.4,0,0,1,637.05,91.5Zm30.83-15.42c0-11-5.73-19.36-15.88-19.36a18.35,18.35,0,0,0-14.95,8.08V87.27a18.5,18.5,0,0,0,14.94,8.23c10.16,0,15.89-8.45,15.89-19.44ZM686.21,98.8V53.4h4.89v7.8c3.85-5.08,9-8.74,15.32-8.74v5.36a10.32,10.32,0,0,0-2.44-.19c-4.61,0-10.81,4.14-12.88,8.08V98.8Zm28.01-22.74c0-13.25,8.46-23.78,21.71-23.78,13.44,0,21.9,10.53,21.9,23.78s-8.46,23.87-21.9,23.87C722.68,99.93,714.22,89.31,714.22,76.06Zm38.35,0c0-10.06-5.92-19.36-16.64-19.36-10.53,0-16.54,9.31-16.54,19.36s6,19.46,16.54,19.46c10.72-.02,16.64-9.31,16.64-19.46Zm1.93,37.69,2.16-4a9.36,9.36,0,0,0,6.67,3.1c4.42,0,7.9-2.44,7.9-8.27V53.4h4.89v51.1c0,8.46-4.51,12.69-12.31,12.69A12.85,12.85,0,0,1,754.5,113.75ZM769.87,42.5a3.75,3.75,0,0,1,3.76-3.67,3.69,3.69,0,0,1,3.759,3.619V42.5a3.77,3.77,0,0,1-3.76,3.76A3.83,3.83,0,0,1,769.87,42.5ZM789.5,76.06c0-13.16,9.21-23.78,21.81-23.78,13.82,0,21.43,10.9,21.43,24.06v1.32h-38c.47,9.87,7,18,17.76,18a20,20,0,0,0,14.85-6.3l2.54,3.2a23.42,23.42,0,0,1-17.76,7.33C798.91,99.93,789.5,90.06,789.5,76.06ZM811.23,56.5c-10.71,0-16.07,9.4-16.45,17.3h33C827.68,66.09,822.6,56.5,811.23,56.5Zm32.33,19.56c0-13.25,8.65-23.78,22-23.78,7.9,0,12.41,3.1,16.07,7.71l-3.38,3a14.36,14.36,0,0,0-12.41-6.3c-10.62,0-17.11,8.46-17.11,19.36s6.49,19.45,17.11,19.45a14.45,14.45,0,0,0,12.41-6.39l3.38,3c-3.67,4.7-8.18,7.8-16.07,7.8C852.21,99.93,843.56,89.31,843.56,76.06Zm50.67,14V57.73h-7.52V53.4h7.52V41h5V53.4h9.21v4.32h-9.21V89.3c0,3.67,1.5,6.2,4.7,6.2a7.09,7.09,0,0,0,5.08-2.16l1.88,3.76a10.21,10.21,0,0,1-7.71,2.82C897.14,99.93,894.23,96.27,894.23,90.06Zm21.71,2.63,2.91-3.57A18.91,18.91,0,0,0,933.5,95.8c7.61,0,12.13-3.95,12.13-9.21,0-12.41-28.67-5.36-28.67-21.71,0-7,5.92-12.59,16.17-12.59,7.8,0,13,3,16.26,6.67l-2.73,3.48c-2.63-3.57-7.52-6-13.54-6-7,0-11.28,3.57-11.28,8.27,0,11.37,28.57,4.42,28.57,21.9,0,7.33-5.64,13.35-17,13.35C926.09,99.93,920.5,97.77,915.94,92.69Z" transform="translate(0.011 -0.004)" fill="#fff"/>
  <path class="shape-back" d="M21.32,31.57,7.6,30.62c-5.49,0-8.67,3.16-7.29,7.05l28.71,72.25Z" transform="translate(0.011 -0.004)" fill="#fff"/>
  <path class="shape-front" d="M175.88,111.78l-8.93-73.4c-.74-5.43-2-7.36-5.41-7.61l-52.19-4.93c-4.53-.33-8-4.06-8.14-9.2a9.78,9.78,0,0,0-8.56-9.68L36.74.07c-6.12-.64-10.79,3.42-10.32,9L38.56,132.5c.35,4.15,4.83,7,10,6.5l121-20.77C173.03,117.59,176.11,115.34,175.88,111.78ZM139.337,45.885c2.274-1.313,5.5.01,7.2,2.955s1.235,6.4-1.039,7.71-5.5-.01-7.2-2.955S137.063,47.2,139.337,45.885Zm-14.6.955c2.274-1.313,5.5.01,7.2,2.955s1.235,6.4-1.039,7.71-5.5-.01-7.2-2.955S122.461,48.154,124.735,46.841Zm-21.1-8.142c2.557-1.477,6.181.012,8.094,3.326s1.39,7.2-1.167,8.673-6.181-.012-8.094-3.326S101.078,40.175,103.636,38.7Zm-32.407-6.43c2.844-1.642,6.874.014,9,3.7s1.546,8-1.3,9.645-6.874-.014-9-3.7S68.385,33.91,71.229,32.268Zm9.36,81.237c-4.625.838-8.637,1.5-12.737-1.362s-4.461-11.58-4.639-13.623c-.109-1.083-.157-16.749,0-23.561a3.474,3.474,0,0,0-.64-2.364c-1.362-1.471-2.888-.4-5.449-2.357a5.293,5.293,0,0,1-2.043-4.216A4.557,4.557,0,0,1,56.6,62.351c2.118-1.928,4.591-.422,5.858-1.362.824-.579.375-3.406.681-7.39a6.859,6.859,0,0,1,2.425-5,6.618,6.618,0,0,1,4.9-1.219,34.113,34.113,0,0,1,11.314,3.065A7.826,7.826,0,0,1,84.8,52.829a10.3,10.3,0,0,1,2.173,5.4c.164,1.587-.272,4.611.681,6.314.64,1.138,3.045,1.471,3.644,1.512s4.686.845,4.686,4.707c0,1.791-1.144,3.3-2.248,3.44A37.1,37.1,0,0,1,90,74.155c-2.186-.048-2.227,1.247-2.227,1.805-.014.443.742,22.934,1.015,25.427a11.15,11.15,0,0,0,1.56,4.673,13.986,13.986,0,0,0,6.423,4.666S85.343,112.674,80.589,113.505Zm67.107-11.62c-1.376.3-19.992,3.576-19.992,3.576-2.656.259-13.664,2.65-17.805,2.3s-5.94-1.785-7.608-4-2.336-7.384-2.582-9.427c-.525-4.366-1.567-23.547-1.887-31.088-.354-8.208,1.669-10.728,5.2-11.028,2.5-.429,9.461,1.219,11.832,2.725,3.113,1.975,3.317,7.39,3.487,8.657.225,1.7,3.562,36.448,4.087,37.633.45.994,1.86.177,1.812-.5-.45-6.614-2.65-35.038-2.834-37.524A5.232,5.232,0,0,1,122.248,60a4.133,4.133,0,0,1,3.515-1.424,30.521,30.521,0,0,1,6.348,1.192,6.573,6.573,0,0,1,4.2,5.449c.15.9,3.528,32.532,3.93,33.179a.926.926,0,0,0,1.553-.5c.075-.892-3.126-32.838-3.406-36.1-.116-1.362-.17-4.55,3.024-4.2a19.5,19.5,0,0,1,4.393.8,5.742,5.742,0,0,1,3.767,4.57s1.029,5.98,2,14.018c.811,6.709,1.921,13.548,1.88,17C153.329,100.931,148.949,101.612,147.7,101.885Z" transform="translate(0.011 -0.004)" fill="#fff"/>
</svg>
