<svg xmlns="http://www.w3.org/2000/svg" viewBox="0 0 24 24"><title>refreshing</title><path d="M18.75,14.1a1,1,0,0,0-1.33.47,6,6,0,0,1-11-.35l.64.16a1,1,0,1,0,.48-1.94l-2.91-.73a1,1,0,0,0-1.21.73l-.73,2.91a1,1,0,0,0,.73,1.21,1,1,0,0,0,1.21-.73l.11-.44A8,8,0,0,0,12,20a8,8,0,0,0,7.23-4.57A1,1,0,0,0,18.75,14.1Z"/><path d="M20.56,7.44a1,1,0,0,0-1.21.73l-.11.45A8,8,0,0,0,12,4,8,8,0,0,0,4.77,8.57a1,1,0,0,0,1.81.86A6,6,0,0,1,12,6a6,6,0,0,1,5.56,3.78l-.64-.16a1,1,0,1,0-.48,1.94l2.91.73a1,1,0,0,0,1.21-.73l.73-2.91A1,1,0,0,0,20.56,7.44Z"/></svg>